<svg xmlns="http://www.w3.org/2000/svg" viewBox="0 0 60 60"><defs><style>.a{fill:#98a0ad;}</style></defs><g transform="translate(-0.003)"><path class="a" d="M56.7,3.3A10.834,10.834,0,0,0,48.754,0h-37.5A10.838,10.838,0,0,0,3.3,3.3,10.837,10.837,0,0,0,0,11.25v37.5A10.838,10.838,0,0,0,3.3,56.7a10.837,10.837,0,0,0,7.95,3.3h37.5A11.27,11.27,0,0,0,60,48.75V11.25A10.838,10.838,0,0,0,56.7,3.3ZM18.284,50.234H9.261V23.125h9.024V50.234Zm-.82-32.128a5.139,5.139,0,0,1-3.711,1.348h-.039A4.965,4.965,0,0,1,10.1,18.105a4.469,4.469,0,0,1-1.387-3.34,4.4,4.4,0,0,1,1.426-3.36,5.2,5.2,0,0,1,3.691-1.328,4.992,4.992,0,0,1,3.633,1.328,4.617,4.617,0,0,1,1.406,3.36A4.442,4.442,0,0,1,17.464,18.105ZM50.746,50.234H41.722V35.742q0-6.132-4.531-6.133a4.42,4.42,0,0,0-2.891.957,6.012,6.012,0,0,0-1.758,2.325,6.444,6.444,0,0,0-.274,2.186V50.234H23.246q.117-24.531,0-27.109h9.024v3.827A9.063,9.063,0,0,1,40.355,22.5a9.779,9.779,0,0,1,7.539,3.086q2.852,3.086,2.851,9.1V50.234h0Z" transform="translate(0 0)"/></g></svg>